<svg xmlns="http://www.w3.org/2000/svg" viewBox="0 0 500 500"><g id="freepik--background-complete--inject-97"><g><g><g><path d="M445.793,327.228h-180.746c-3.232,0-5.862-2.63-5.862-5.862V58.092c0-3.232,2.63-5.862,5.862-5.862h180.746c3.232,0,5.862,2.629,5.862,5.862V321.365c0,3.233-2.63,5.862-5.862,5.862ZM265.047,52.48c-3.095,0-5.612,2.518-5.612,5.612V321.365c0,3.095,2.518,5.612,5.612,5.612h180.746c3.095,0,5.612-2.517,5.612-5.612V58.092c0-3.094-2.518-5.612-5.612-5.612h-180.746Z" style="fill:#e0e0e0;"></path><path d="M237.365,327.228H56.618c-3.232,0-5.862-2.63-5.862-5.862V58.092c0-3.232,2.629-5.862,5.862-5.862H237.365c3.232,0,5.862,2.629,5.862,5.862V321.365c0,3.233-2.63,5.862-5.862,5.862ZM56.618,52.48c-3.094,0-5.612,2.518-5.612,5.612V321.365c0,3.095,2.518,5.612,5.612,5.612H237.365c3.095,0,5.612-2.517,5.612-5.612V58.092c0-3.094-2.518-5.612-5.612-5.612H56.618Z" style="fill:#e0e0e0;"></path></g><rect x="1.872" y="388.297" width="500" height=".25" style="fill:#e0e0e0;"></rect></g><rect x="53.545" y="402.562" width="16.06" height=".25" style="fill:#e0e0e0;"></rect><rect x="172.225" y="399.852" width="53.53" height=".25" style="fill:#e0e0e0;"></rect><rect x="70.605" y="411.852" width="36.25" height=".25" style="fill:#e0e0e0;"></rect><rect x="380.225" y="399.722" width="43.19" height=".25" style="fill:#e0e0e0;"></rect><rect x="432.325" y="399.722" width="6.33" height=".25" style="fill:#e0e0e0;"></rect><rect x="318.085" y="405.952" width="53.89" height=".25" style="fill:#e0e0e0;"></rect></g><g><g><rect x="343.432" y="139.717" width="56.964" height="95.901" transform="translate(743.828 375.335) rotate(180)" style="fill:#e6e6e6;"></rect><rect x="336.94" y="139.717" width="61.906" height="95.901" transform="translate(735.787 375.335) rotate(180)" style="fill:#f0f0f0;"></rect><rect x="324.692" y="161.901" width="86.403" height="51.534" transform="translate(555.561 -180.226) rotate(90)" style="fill:#fff;"></rect></g><path d="M380.435,165.63h-25.083c-.275,0-.498,.377-.498,.841v42.394c0,.465,.223,.841,.498,.841h25.083c.275,0,.498-.377,.498-.841v-42.394c0-.464-.223-.841-.498-.841Zm-24.586,42.393v-40.711l24.088,40.711h-24.088Z" style="fill:#f0f0f0;"></path></g><g><rect x="65.469" y="95.448" width="42.777" height="54.96" rx="3.512" ry="3.512" transform="translate(-22.097 19.08) rotate(-11.131)" style="fill:#e6e6e6;"></rect><path d="M72.517,107.676h23.398c.979,0,1.774,.795,1.774,1.774v.101c0,.98-.795,1.775-1.775,1.775h-23.398c-.979,0-1.774-.795-1.774-1.774v-.101c0-.979,.795-1.774,1.774-1.774Z" transform="translate(-19.555 18.318) rotate(-11.131)" style="fill:#f0f0f0;"></path><path d="M74.318,116.837h23.398c.98,0,1.775,.795,1.775,1.775v.1c0,.979-.795,1.775-1.775,1.775h-23.397c-.98,0-1.775-.795-1.775-1.775v-.101c0-.979,.795-1.774,1.774-1.774Z" transform="translate(-21.29 18.838) rotate(-11.131)" style="fill:#f0f0f0;"></path><path d="M76.121,125.999h23.399c.979,0,1.774,.795,1.774,1.774v.101c0,.98-.795,1.775-1.775,1.775h-23.397c-.98,0-1.776-.796-1.776-1.776v-.101c0-.979,.795-1.773,1.773-1.773Z" transform="translate(-23.024 19.358) rotate(-11.131)" style="fill:#f0f0f0;"></path><path d="M78.043,136.391h10.651c.98,0,1.775,.796,1.775,1.775v.101c0,.979-.795,1.773-1.773,1.773h-10.651c-.98,0-1.776-.796-1.776-1.776v-.101c0-.979,.795-1.773,1.773-1.773Z" transform="translate(-25.114 18.694) rotate(-11.131)" style="fill:#f0f0f0;"></path></g><path d="M185.146,228.045c-2.026,3.085-3.388,6.473-4.114,9.968l-5.566,.524v10.78l5.566,.524c.725,3.494,2.088,6.882,4.113,9.968l-3.555,4.294,7.622,7.622,4.294-3.555c3.085,2.026,6.473,3.388,9.967,4.113l.524,5.567h10.779l.524-5.566c3.495-.726,6.883-2.088,9.968-4.114l4.294,3.555,7.623-7.622-3.555-4.294c2.025-3.085,3.388-6.473,4.113-9.968l5.566-.524v-10.78l-5.565-.525c-.725-3.494-2.088-6.882-4.114-9.967l3.555-4.294-7.622-7.622-4.294,3.555c-3.086-2.026-6.474-3.389-9.968-4.114l-.524-5.566h-10.78l-.524,5.567c-3.494,.726-6.882,2.088-9.967,4.113l-4.294-3.555-7.622,7.623,3.555,4.294Zm34.562,5.563c5.698,5.699,5.699,14.939,0,20.637-5.699,5.699-14.939,5.699-20.638,0s-5.698-14.938,0-20.637c5.699-5.698,14.938-5.698,20.637,0Z" style="fill:#ebebeb;"></path><path d="M166.649,286.97c-1.109,1.688-1.854,3.543-2.252,5.456l-3.047,.287v5.9l3.047,.287c.397,1.913,1.143,3.767,2.252,5.456l-1.946,2.35,4.172,4.172,2.35-1.946c1.689,1.109,3.543,1.854,5.456,2.251l.287,3.047h5.9l.287-3.047c1.913-.397,3.767-1.143,5.456-2.252l2.35,1.946,4.172-4.172-1.946-2.351c1.108-1.689,1.854-3.543,2.251-5.456l3.046-.287v-5.9l-3.046-.287c-.397-1.913-1.143-3.767-2.252-5.456l1.946-2.351-4.172-4.172-2.35,1.946c-1.689-1.109-3.543-1.855-5.456-2.252l-.287-3.047h-5.9l-.287,3.047c-1.913,.397-3.767,1.143-5.456,2.252l-2.351-1.946-4.172,4.172,1.946,2.351Zm18.918,3.045c3.119,3.119,3.119,8.177,0,11.296-3.119,3.12-8.177,3.119-11.296,0-3.119-3.119-3.119-8.177,0-11.296,3.119-3.119,8.177-3.119,11.296,0Z" style="fill:#f5f5f5;"></path><path d="M412.54,319.14c-2.026,3.085-3.388,6.473-4.114,9.968l-5.566,.524v10.78l5.566,.524c.725,3.494,2.088,6.882,4.113,9.968l-3.555,4.294,7.622,7.622,4.294-3.555c3.085,2.025,6.473,3.388,9.967,4.113l.524,5.567h10.779l.524-5.566c3.495-.726,6.883-2.088,9.968-4.114l4.294,3.555,7.623-7.622-3.555-4.294c2.025-3.085,3.388-6.473,4.113-9.968l5.566-.524v-10.78l-5.565-.525c-.725-3.494-2.088-6.882-4.114-9.967l3.555-4.294-7.622-7.622-4.294,3.555c-3.086-2.025-6.474-3.389-9.967-4.114l-.524-5.567h-10.78l-.524,5.567c-3.494,.726-6.882,2.088-9.967,4.113l-4.294-3.555-7.622,7.623,3.555,4.294Zm34.562,5.563c5.698,5.699,5.699,14.939,0,20.637-5.699,5.699-14.939,5.699-20.638,0-5.699-5.699-5.698-14.938,0-20.637,5.699-5.698,14.938-5.699,20.637,0Z" style="fill:#ebebeb;"></path><path d="M374.604,78.178c-2.026,3.085-3.388,6.473-4.114,9.968l-5.566,.524v10.78l5.566,.524c.725,3.494,2.088,6.882,4.114,9.968l-3.555,4.294,7.622,7.622,4.294-3.555c3.085,2.025,6.473,3.388,9.967,4.113l.524,5.567h10.779l.524-5.566c3.495-.726,6.883-2.088,9.968-4.114l4.294,3.555,7.623-7.622-3.555-4.294c2.025-3.085,3.388-6.473,4.113-9.967l5.566-.524v-10.78l-5.565-.525c-.725-3.494-2.088-6.882-4.114-9.967l3.555-4.294-7.622-7.622-4.294,3.555c-3.086-2.026-6.474-3.389-9.967-4.114l-.525-5.566h-10.78l-.524,5.567c-3.494,.726-6.882,2.088-9.967,4.113l-4.294-3.555-7.622,7.623,3.555,4.294Zm34.562,5.563c5.698,5.699,5.699,14.939,0,20.637-5.699,5.699-14.939,5.699-20.638,0s-5.698-14.938,0-20.637c5.699-5.698,14.938-5.698,20.637,0Z" style="fill:#f5f5f5;"></path><path d="M325.828,53.682c-1.362,2.074-2.278,4.352-2.766,6.701l-3.742,.352v7.247l3.742,.352c.487,2.349,1.403,4.627,2.765,6.701l-2.39,2.887,5.125,5.125,2.887-2.39c2.074,1.362,4.352,2.278,6.701,2.765l.352,3.743h7.247l.353-3.742c2.349-.488,4.627-1.404,6.702-2.766l2.887,2.39,5.125-5.125-2.39-2.887c1.362-2.074,2.278-4.352,2.765-6.701l3.742-.352v-7.247l-3.742-.353c-.488-2.349-1.404-4.627-2.766-6.701l2.39-2.887-5.125-5.124-2.887,2.39c-2.074-1.362-4.352-2.278-6.701-2.766l-.353-3.742h-7.247l-.352,3.743c-2.349,.488-4.627,1.403-6.701,2.765l-2.887-2.39-5.125,5.125,2.39,2.887Zm23.236,3.74c3.831,3.831,3.831,10.043,0,13.874-3.831,3.832-10.043,3.831-13.875,0s-3.831-10.043,0-13.875c3.831-3.831,10.043-3.831,13.874,0Z" style="fill:#f5f5f5;"></path><path d="M308.664,102.478c-1,1.522-1.672,3.194-2.03,4.918l-2.746,.259v5.319l2.746,.259c.358,1.724,1.03,3.396,2.03,4.918l-1.754,2.119,3.761,3.761,2.119-1.754c1.522,.999,3.194,1.672,4.918,2.029l.258,2.747h5.319l.259-2.746c1.724-.358,3.396-1.03,4.918-2.03l2.119,1.754,3.761-3.761-1.754-2.119c.999-1.522,1.671-3.194,2.029-4.918l2.746-.259v-5.319l-2.746-.259c-.358-1.724-1.03-3.396-2.03-4.918l1.754-2.119-3.761-3.761-2.119,1.754c-1.522-.999-3.194-1.672-4.918-2.03l-.259-2.747h-5.319l-.258,2.747c-1.724,.358-3.396,1.03-4.918,2.03l-2.119-1.754-3.761,3.761,1.754,2.119Zm17.053,2.745c2.811,2.812,2.812,7.371,0,10.182s-7.371,2.812-10.183,0-2.812-7.37,0-10.183c2.812-2.811,7.37-2.812,10.182,0Z" style="fill:#f5f5f5;"></path><path d="M51.002,291.013c-2.026,3.085-3.388,6.473-4.114,9.968l-5.566,.524v10.78l5.566,.524c.725,3.494,2.088,6.882,4.113,9.968l-3.555,4.294,7.622,7.622,4.294-3.555c3.085,2.025,6.473,3.388,9.967,4.113l.524,5.567h10.779l.525-5.566c3.495-.726,6.883-2.088,9.968-4.114l4.294,3.555,7.623-7.622-3.555-4.294c2.025-3.085,3.388-6.473,4.113-9.968l5.566-.524v-10.78l-5.565-.525c-.725-3.494-2.088-6.882-4.114-9.967l3.555-4.294-7.622-7.622-4.294,3.555c-3.086-2.025-6.474-3.389-9.968-4.114l-.524-5.567h-10.78l-.524,5.567c-3.494,.726-6.882,2.088-9.967,4.113l-4.294-3.555-7.622,7.623,3.555,4.294Zm34.562,5.563c5.698,5.699,5.699,14.939,0,20.637-5.699,5.699-14.939,5.699-20.638,0-5.699-5.699-5.698-14.938,0-20.638,5.699-5.698,14.938-5.699,20.637,0Z" style="fill:#e0e0e0;"></path><path d="M373.584,360.796c-1.245,1.896-2.083,3.979-2.529,6.127l-3.422,.322v6.626l3.422,.322c.446,2.148,1.283,4.23,2.529,6.127l-2.186,2.639,4.686,4.686,2.64-2.185c1.896,1.245,3.979,2.083,6.127,2.528l.322,3.422h6.626l.322-3.421c2.148-.446,4.231-1.284,6.127-2.529l2.639,2.185,4.686-4.686-2.185-2.64c1.245-1.896,2.082-3.979,2.528-6.127l3.421-.322v-6.626l-3.421-.323c-.446-2.148-1.284-4.23-2.529-6.127l2.185-2.64-4.686-4.685-2.639,2.185c-1.897-1.245-3.979-2.083-6.127-2.529l-.322-3.422h-6.626l-.322,3.422c-2.148,.446-4.23,1.283-6.127,2.529l-2.64-2.185-4.686,4.686,2.186,2.639Zm21.245,3.42c3.502,3.503,3.503,9.183,0,12.686s-9.183,3.503-12.686,0c-3.503-3.503-3.503-9.182,0-12.686,3.503-3.503,9.182-3.503,12.686,0Z" style="fill:#e0e0e0;"></path><g><rect x="430.879" y="238.941" width="28.965" height="37.214" rx="3.512" ry="3.512" transform="translate(33.674 -50.982) rotate(6.809)" style="fill:#e6e6e6;"></rect><path d="M454.146,250.51l-15.664-1.87c-.678-.081-1.161-.696-1.08-1.373h0c.081-.678,.696-1.161,1.373-1.081l15.664,1.87c.678,.081,1.161,.696,1.08,1.373h0c-.081,.678-.696,1.161-1.373,1.081Z" style="fill:#f0f0f0;"></path><path d="M453.396,256.787l-15.664-1.87c-.678-.081-1.161-.696-1.08-1.373h0c.081-.678,.696-1.161,1.373-1.081l15.664,1.87c.678,.081,1.161,.696,1.08,1.373h0c-.081,.677-.696,1.161-1.373,1.08Z" style="fill:#f0f0f0;"></path><path d="M452.647,263.065l-15.664-1.87c-.678-.081-1.161-.696-1.08-1.373h0c.081-.678,.696-1.161,1.373-1.08l15.664,1.87c.678,.081,1.161,.696,1.08,1.373h0c-.081,.678-.696,1.161-1.373,1.08Z" style="fill:#f0f0f0;"></path><path d="M443.326,268.319l-7.093-.847c-.678-.081-1.161-.696-1.08-1.373h0c.081-.678,.696-1.161,1.373-1.081l7.093,.847c.678,.081,1.161,.696,1.08,1.373h0c-.081,.678-.696,1.161-1.373,1.08Z" style="fill:#f0f0f0;"></path></g></g><g id="freepik--Shadow--inject-97"><path d="M458.875,454.394c0,3.387-93.517,6.132-208.875,6.132s-208.875-2.745-208.875-6.132,93.516-6.132,208.875-6.132,208.875,2.746,208.875,6.132Z" style="fill:#f5f5f5;"></path></g><g id="freepik--Plant--inject-97"><g><g><path d="M199.38,439.32l-.985,8.307v.002l-.064,.539h0c-.186,1.563-1.511,2.74-3.085,2.74h-20.742c-1.578,0-2.906-1.183-3.086-2.752l-.079-.683-.071-.613-.246-2.14-.076-.648-.048-.424-.064-.551-.57-4.947-.062-.541-1.126-9.783v-.002l-.066-.563-.527-4.572c0-1.618,32.869-1.618,32.869,0l-.386,3.249-.062,.527-.708,5.963-.062,.517-.461,3.892-.065,.558-.172,1.45-.057,.473Z" style="fill:#263238;"></path><path d="M170.117,423.315c0,.428,6.713,.775,14.994,.775s14.994-.347,14.994-.775-6.713-.775-14.994-.775-14.994,.347-14.994,.775Z"></path><g><path d="M184.114,410.676s4.61,.722,10.814-6.662l-4.203,.384,6.101-2.877c6.413-9.624,5.111-26.185,5.111-26.185,0,0-4.723,3.94-9.123,10.334l-1.093,5.936-.568-3.363c-3.375,5.576-7.453,14.733-7.038,22.433Z" style="fill:#DB7C0C;"></path><path d="M183.583,395.952s-4.653-.35-9.006-8.956l4.004,1.334-5.282-4.195c-4.044-10.835,1.008-26.66,1.008-26.66,0,0,3.698,4.915,6.52,12.145l-.292,6.029,1.322-3.144c2.012,6.2,3.889,16.046,1.725,23.448Z" style="fill:#DB7C0C;"></path><path d="M184.547,418.515s-4.529,1.122-11.355-5.692l4.221,.015-6.329-2.334c-7.229-9.028-7.378-25.638-7.378-25.638,0,0,5.049,3.512,9.991,9.497l1.607,5.817,.272-3.4c3.849,5.26,8.711,14.025,8.97,21.733Z" style="fill:#DB7C0C;"></path></g></g><path d="M185.741,423.473h-1.355c-2.193-15.582-.823-28.788,.751-37.234,1.769-9.49,4.105-15.041,4.203-15.272,.145-.341,.54-.5,.881-.355,.341,.145,.5,.539,.355,.881-.024,.056-2.377,5.646-4.119,14.992-1.562,8.381-2.92,21.504-.715,36.988Z" style="fill:#263238;"></path><path d="M188.373,378.676s-3.774-2.744-2.951-12.354l2.704,3.241-2.287-6.346c2.257-11.343,14.875-22.147,14.875-22.147,0,0,.561,6.125-.84,13.759l-3.418,4.974,2.777-1.98c-1.549,6.331-5.129,15.693-10.862,20.852Z" style="fill:#DB7C0C;"></path></g></g><g id="freepik--Speech_Bubble--inject-97"><g><g><path d="M290.806,213.581c6.492-6.659,17.153-6.795,23.812-.303,6.659,6.492,6.795,17.153,.303,23.813-5.012,5.141-12.503,6.377-18.725,3.694l-4.587,2.13-.291-5.336c-.068-.064-.142-.119-.21-.185-6.659-6.492-6.795-17.153-.303-23.812Z" style="fill:#DB7C0C;"></path><path d="M313.606,209.786c-.054,0-.107-.017-.153-.052-4.246-3.288-10.258-4.242-15.313-2.432-.127,.045-.273-.021-.319-.151-.047-.13,.021-.273,.151-.32,5.21-1.866,11.409-.883,15.788,2.507,.109,.084,.129,.242,.044,.351-.049,.064-.123,.097-.197,.097Z" style="fill:#DB7C0C;"></path><path d="M293.511,209.386c-.072,0-.145-.032-.194-.092-.087-.107-.07-.265,.037-.352,.671-.545,1.467-.956,2.302-1.187,.137-.039,.271,.042,.308,.174,.036,.133-.041,.271-.175,.308-.769,.213-1.502,.591-2.12,1.093-.046,.038-.102,.056-.157,.056Z" style="fill:#DB7C0C;"></path></g><path d="M302.551,233.439c-.633,0-1.162-.204-1.586-.614-.424-.409-.637-.907-.637-1.494s.208-1.077,.625-1.47c.417-.394,.95-.591,1.598-.591s1.181,.197,1.598,.591c.417,.394,.625,.884,.625,1.47s-.212,1.085-.637,1.494c-.424,.409-.953,.614-1.586,.614Zm1.436-5.813h-2.872l-.718-10.583h4.307l-.718,10.583Z" style="fill:#fff;"></path></g></g><g id="freepik--Character_2--inject-97"><g><g><path d="M242.274,315.84s2.586,51.86,13.755,60.788h-11.945s-10.652-17.667-11.446-60.788h9.637Z" style="fill:#263238;"></path><path d="M237.831,372.331h52.963c2.48,0,4.493,2.013,4.493,4.493v4.102h-61.949v-4.102c0-2.48,2.013-4.493,4.493-4.493Z" style="fill:#DB7C0C;"></path><path d="M235.492,435.112l23.881-2.082v-31.363h8.396v31.355l23.967,2.09c2.111,.208,3.721,1.983,3.721,4.105v3.181h-63.686v-3.181c0-2.121,1.61-3.897,3.721-4.105Z" style="fill:#263238;"></path><path d="M287.726,446.344c0,3.031,2.457,5.489,5.489,5.489s5.489-2.457,5.489-5.489-2.458-5.489-5.489-5.489-5.489,2.458-5.489,5.489Z" style="fill:#263238;"></path><path d="M239.502,446.344c0,3.031-2.457,5.489-5.489,5.489s-5.489-2.457-5.489-5.489,2.458-5.489,5.489-5.489,5.489,2.458,5.489,5.489Z" style="fill:#263238;"></path><path d="M261.641,377.883h3.859c2.05,0,3.714,1.664,3.714,3.714v22.982h-11.287v-22.982c0-2.05,1.664-3.714,3.714-3.714Z" transform="translate(527.142 782.461) rotate(180)" style="fill:#263238;"></path><g><rect x="230.981" y="376.628" width="66.663" height="4.297" rx="1.807" ry="1.807" style="fill:#263238;"></rect></g><path d="M227.074,327.194h19.135c5.606,0,9.654-5.037,9.042-11.25l-.817-8.294c-.612-6.213-5.652-11.25-11.257-11.25h-19.135c-5.606,0-9.654,5.037-9.042,11.25l.816,8.294c.612,6.213,5.652,11.25,11.258,11.25Z" style="fill:#DB7C0C;"></path><polygon points="231.152 296.399 237.311 327.194 243.126 327.194 238.476 296.399 231.152 296.399" style="isolation:isolate; opacity:.2;"></polygon><polygon points="233.097 327.194 233.363 330.905 243.489 330.905 243.126 327.194 233.097 327.194" style="isolation:isolate; opacity:.2;"></polygon></g><g><g><path d="M275.689,291.467c.221,.55,6.54,32.235,12.417,34.191,5.877,1.956,28.246,.676,28.246,.676l1.069-6.178-21.379-6.103-5.725-24.958-14.629,2.372Z" style="fill:#faac6d;"></path><path d="M277.028,273.638s8.339,.405,10.724,6.994c2.108,5.826,8.291,22.95,8.291,22.95l-13.605,3.987-5.41-33.932Z" style="fill:#DB7C0C;"></path><path d="M317.422,320.156l6.409-.408c.707-.045,1.407,.167,1.97,.598l7.013,5.363s-.665,.894-1.775,.534l1.183,1.494s-.932,.897-2.128,.023c-1.197-.873-3.687-2.052-3.687-2.052l3.005,3.336s-.07,1.1-1.591,.478c-1.522-.622-4.109-3.235-4.109-3.235,0,0-6.487,1.375-7.929,.576-1.442-.8-2.26-4.728-2.26-4.728l3.899-1.979Z" style="fill:#faac6d;"></path><path d="M317.853,325.603c-1.204,0-2.091-.278-2.642-.832-.622-.625-.567-1.364-.565-1.396,.006-.065,.061-.114,.125-.114h.01c.069,.006,.12,.066,.115,.135,0,.007-.046,.662,.497,1.203,.604,.601,1.672,.848,3.167,.724,2.196-.178,3.029-.493,3.638-.724,.507-.192,.87-.336,1.713-.292,.324,.016,.673,.04,1.027,.064,1.31,.09,2.794,.193,3.196-.164,.059-.052,.088-.109,.091-.181,.036-.755,.056-1.171-2.803-1.567-2.874-.399-5.508-.725-5.534-.728-.068-.009-.117-.07-.108-.14,.009-.067,.059-.123,.14-.108,.026,.003,2.661,.328,5.538,.728,2.952,.41,3.062,.883,3.018,1.827-.007,.14-.065,.259-.175,.355-.48,.427-1.955,.325-3.379,.227-.353-.024-.7-.049-1.022-.063-.787-.044-1.115,.087-1.613,.275-.621,.236-1.474,.559-3.706,.74-.254,.021-.496,.03-.727,.03Z" style="opacity:.3;"></path><path d="M287.417,306.111s-2.634-16.901-2.634-16.487,5.394,15.678,5.399,15.676-2.766,.811-2.766,.811Z" style="opacity:.3;"></path><path d="M274.271,315.849l18.252,3.273s8.577-.684,10.083,0c1.506,.684,9.315,7.619,9.172,7.421l-3.549,.114c-6.498,.3-15.899-.122-16.072-.053-.228,.091-17.887-10.95-17.887-10.95" style="opacity:.3;"></path></g><g><polygon points="331.112 422.448 337.38 442.856 346.673 442.05 343.087 419.121 331.112 422.448" style="fill:#faac6d;"></polygon><g><path d="M338.993,440.103c1.236,1.146,2.831,1.191,4.041,.246l.252-1.717c.219-1.478,1.094-2.42,2.684-2.218,.779,.098,1.845,.961,2.49,2.374,1.156,2.534,2.955,3.631,2.955,3.631,0,0,7.094,3.527,9.639,4.307,1.519,.465,3.549,1.167,4.638,2.793,.311,.465,.591,1.015,.835,1.665,.2,.533,.195,1.739,.195,1.765l-17.978-.009s-1.834-1.07-2.613-1.042c-1.386,.05-2.007,1.257-2.007,1.257l-6.537,.046s-.126-1.009-.306-2.477h-.002c-.081-.662-.173-1.416-.272-2.213-.421-3.418-1.083-7.726-1.194-8.694-.195-1.696,3.18,.285,3.18,.285Z" style="fill:#263238;"></path><path d="M355.237,444.155c-.081-.073-.205-.08-.299-.021-.428,.269-.787,.647-1.028,1.119-.128,.249,.264,.486,.392,.234,.215-.42,.528-.754,.902-.99,.125-.079,.144-.242,.036-.339l-.003-.003Z" style="fill:#DB7C0C;"></path><path d="M353.85,443.408c-.081-.073-.205-.08-.299-.021-.428,.269-.786,.647-1.028,1.119-.127,.249,.264,.486,.393,.234,.215-.42,.528-.754,.902-.99,.125-.079,.144-.242,.036-.34l-.003-.003Z" style="fill:#DB7C0C;"></path><path d="M352.42,442.712c-.081-.073-.205-.08-.299-.021-.428,.269-.786,.647-1.028,1.119-.127,.249,.264,.486,.393,.234,.215-.42,.528-.754,.902-.989,.125-.079,.144-.242,.036-.34l-.003-.003Z" style="fill:#DB7C0C;"></path></g><path d="M366.166,450.409c.127,.258,.248,.53,.36,.828,.2,.534,.195,1.739,.195,1.765l-17.978-.009s-1.834-1.07-2.613-1.042c-1.386,.05-2.007,1.257-2.007,1.257l-6.537,.046s-.126-1.009-.306-2.477h-.002l-.045-.369h28.933Z" style="fill:#fff; isolation:isolate; opacity:.2;"></path><path d="M352.15,443.166l-.021-.235c-.054-.617-.109-1.255-.052-1.896,.064-.727,.271-1.34,.611-1.821,.164-.23,.429-.499,.774-.499,.014,0,.027,0,.042,0,.375,.023,.631,.362,.744,.672,.202,.546,.149,1.205-.146,1.81-.287,.586-1.428,1.542-1.771,1.82l-.183,.149Zm1.314-4.202c-.254,0-.467,.244-.573,.394-.314,.445-.505,1.017-.566,1.698-.048,.54-.013,1.085,.032,1.616,.641-.536,1.33-1.194,1.521-1.585,.265-.543,.314-1.132,.136-1.614-.083-.225-.27-.492-.525-.508h-.024Z" style="fill:#DB7C0C;"></path><path d="M352.384,443.084l-.229-.041c-.434-.084-1.888-.389-2.42-.773-.544-.394-.9-.95-.98-1.529-.045-.326,.021-.745,.342-.942,.243-.15,.583-.132,.954,.057,.529,.265,.999,.708,1.396,1.318,.348,.531,.601,1.122,.845,1.694l.093,.217Zm-2.913-3.137c-.086,0-.17,.018-.244,.063-.219,.135-.258,.459-.225,.695,.07,.512,.391,1.007,.879,1.36,.355,.258,1.272,.514,2.088,.684-.212-.493-.438-.992-.731-1.44-.373-.573-.811-.987-1.299-1.232-.113-.057-.294-.13-.468-.13Z" style="fill:#DB7C0C;"></path></g><g><polygon points="368.241 420.144 380.49 437.629 389.083 434 378.609 413.291 368.241 420.144" style="fill:#faac6d;"></polygon><g><path d="M383.873,447.408l6.205-2.057s.219-1.34,1.523-1.815c.732-.266,2.807,.186,2.807,.186l17.107-5.529c-.008-.025-.375-1.173-.729-1.62-.432-.543-.868-.98-1.307-1.327-1.536-1.211-3.684-1.254-5.273-1.228-2.662,.042-10.497-1.129-10.497-1.129,0,0-2.05-.49-3.93-2.544-1.049-1.146-2.329-1.639-3.1-1.492-1.574,.297-2.117,1.463-1.87,2.936l.289,1.711c-.86,1.272-2.391,1.72-3.92,1.01,0,0-3.821-.844-3.113,.709,.404,.886,2.361,4.781,3.814,7.904,.339,.728,.659,1.417,.94,2.021h.002c.624,1.341,1.054,2.262,1.054,2.262Z" style="fill:#263238;"></path><path d="M397.88,433.365c-.099-.044-.22-.013-.291,.072-.324,.388-.549,.857-.634,1.381-.045,.276,.401,.381,.446,.102,.075-.466,.27-.88,.554-1.219,.095-.113,.063-.275-.07-.334l-.004-.002Z" style="fill:#DB7C0C;"></path><path d="M396.33,433.082c-.099-.044-.22-.013-.291,.072-.324,.388-.549,.858-.634,1.382-.045,.276,.401,.381,.446,.102,.075-.466,.27-.88,.554-1.219,.095-.113,.063-.275-.071-.334l-.004-.002Z" style="fill:#DB7C0C;"></path><path d="M394.755,432.859c-.1-.044-.22-.013-.291,.072-.325,.388-.549,.858-.634,1.381-.045,.276,.401,.381,.446,.102,.075-.466,.27-.88,.554-1.219,.095-.114,.063-.275-.071-.334l-.004-.002Z" style="fill:#DB7C0C;"></path></g><path d="M410.187,435.898c.2,.206,.4,.428,.598,.677,.354,.446,.721,1.594,.729,1.62l-17.107,5.529s-2.074-.453-2.807-.186c-1.304,.474-1.523,1.815-1.523,1.815l-6.205,2.057s-.43-.921-1.054-2.262h-.002c-.049-.105-.105-.226-.156-.337l27.526-8.912Z" style="fill:#fff; isolation:isolate; opacity:.2;"></path><path d="M394.637,433.374l-.092-.217,.115-.049-.117,.044c-.241-.572-.491-1.163-.632-1.783-.162-.709-.155-1.355,.021-1.921,.124-.396,.346-.654,.623-.726,.365-.088,.712,.15,.916,.41,.36,.458,.513,1.102,.418,1.766-.093,.65-.885,1.908-1.125,2.278l-.128,.197Zm.079-4.422c-.032,0-.065,.004-.098,.013-.258,.065-.391,.378-.447,.558-.163,.522-.168,1.125-.016,1.791,.118,.522,.32,1.032,.527,1.527,.444-.706,.897-1.543,.959-1.978,.085-.597-.049-1.171-.367-1.576-.128-.164-.342-.335-.559-.335Z" style="fill:#DB7C0C;"></path><path d="M393.005,433.365c-.366,0-.711-.025-.941-.1-.639-.207-1.15-.628-1.403-1.152-.144-.298-.21-.717,.034-1.002,.238-.28,.638-.284,.925-.241,.584,.09,1.168,.367,1.735,.824,.494,.399,.915,.883,1.322,1.35l.155,.178-.229,.034c-.277,.034-.969,.109-1.599,.109Zm-1.639-2.265c-.171,0-.365,.036-.482,.173-.165,.194-.103,.516,0,.73,.225,.465,.682,.838,1.256,1.023,.418,.136,1.368,.096,2.196,.008-.354-.404-.722-.81-1.139-1.146-.533-.43-1.077-.689-1.616-.771-.061-.01-.136-.018-.216-.018Z" style="fill:#DB7C0C;"></path></g><g id="freepik--_Group_--inject-97"><path d="M289.446,344.299s53.735,8.685,62.224,15.812c9.222,7.742,36.874,63.699,36.874,63.699l-17.684,7.752s-24.696-44.68-29.06-47.706c-4.364-3.026-59.363-15.596-59.363-15.596l7.008-23.961Z" style="fill:#263238;"></path><path d="M289.68,345.184l3.055,4.777,32.177,1.436c-7.424-1.938-19.366-4.174-32.776-6.709l-2.456,.497Z" style="isolation:isolate; opacity:.4;"></path><path d="M340.632,355.316s1.826,4.039,2.892,9.12c.68,3.241,5.119,28.867,4.895,28.524-.224-.343-9.184-11.097-9.184-11.097l-4.961-28.402,6.359,1.855Z" style="isolation:isolate; opacity:.4;"></path><path d="M354.57,431.295l-9.465-43.362-6.016-27.561c-1.033-4.733-5.038-8.235-9.867-8.626l-36.821-1.564-4.01-11.439-44.058,6.014s.625,19.271,6.007,26.338c4.212,5.532,62.957,6.248,67.316,7.68l15.376,54.679,21.538-2.16Z" style="fill:#263238;"></path></g><g><path d="M293.533,344.987l-8.439-53.641-7.614-17.668-8.463-.736-11.732-.29-12.607,.666-5.063,19.999s1.863,28.006,1.989,29.459c.155,1.781,2.036,32.344,2.036,32.344,20.859,1.37,50.459-8.621,49.893-10.133Z" style="fill:#DB7C0C;"></path><path d="M255.324,341.32c-.102,0-.197-.062-.234-.163-.048-.13,.019-.273,.147-.321,9.285-3.436,17.372-9.897,22.771-18.197,.076-.115,.232-.146,.347-.073,.115,.076,.148,.23,.073,.347-5.459,8.389-13.633,14.921-23.018,18.393-.028,.011-.058,.016-.087,.016Z" style="opacity:.2;"></path></g><g><path d="M255.166,272.63s.787-5.648-2.519-15.44c0-.011,.512-.265,.512-.276-.456-1.369-.934-2.633-1.38-3.726-.01-.032-.01-.043-.01-.043l13.929,7.793c-.18,3.185,1.224,9.263,2.016,11.821,0,0,2.949,5.626-3.276,6.102-4.549,.348-9.271-6.232-9.271-6.232Z" style="fill:#faac6d;"></path><path d="M254.841,233.376c-2.787,2.157-6.252,8.16-1.114,8.996,5.138,.837,5.905-12.703,1.114-8.996Z" style="fill:#263238;"></path><path d="M255.079,267.873s7.513-2.001,7.421-6.701l-7.937,3.437,.516,3.264Z" style="opacity:.2;"></path><path d="M272.073,250.895c-4.507,7.391-6.9,11.65-12.819,13.492-8.904,2.771-16.323-5.517-14.108-14.13,1.994-7.752,9.029-18.536,18.09-17.544,8.927,.977,13.344,10.792,8.837,18.183Z" style="fill:#faac6d;"></path><path d="M278.907,241.582c1.176-4.764-3.042-9.963-7.126-9.37-.61,.089,2.114,2.992,1.808,2.654l-3.047,6.327c.506,.139,1.116,1.139,.833,2.791,0,0-5.397,7.494-3.871,12.639,10.276,.555,16.133-10.274,11.403-15.041Z" style="fill:#263238;"></path><path d="M271.724,258.857c-1.65,1.644-3.905,2.362-5.818,2.313-2.878-.073-3.495-2.87-2.007-5.163,1.339-2.063,4.451-4.512,7.008-3.327,2.52,1.168,2.704,4.296,.817,6.176Z" style="fill:#faac6d;"></path><path d="M259.974,247.321c-.413,.782-1.161,1.192-1.67,.917-.509-.275-.587-1.133-.173-1.914,.413-.782,1.161-1.192,1.67-.917,.509,.275,.587,1.132,.174,1.914Z" style="fill:#263238;"></path><path d="M252.227,243.421c-.413,.782-1.16,1.192-1.67,.917-.509-.275-.587-1.133-.174-1.914,.413-.782,1.161-1.192,1.67-.917,.509,.276,.587,1.133,.174,1.914Z" style="fill:#263238;"></path><path d="M254.951,244.306s-4.527,2.576-6.157,3.738c.569,1.558,2.682,2.095,2.682,2.095l3.474-5.834Z" style="fill:#e97f3f;"></path><path d="M261.128,242.165c.136,.047,.245,.164,.274,.318,.348,1.82,1.748,2.425,1.762,2.431,.211,.088,.312,.331,.226,.543-.086,.211-.328,.311-.537,.224-.074-.031-1.829-.788-2.26-3.046-.043-.225,.103-.442,.327-.484,.072-.014,.143-.007,.209,.016Z" style="fill:#263238;"></path><path d="M250.62,237.936c-.048-.062-.08-.138-.086-.223-.018-.229,.151-.43,.378-.449,2.274-.192,3.438,1.314,3.499,1.374,.138,.181,.105,.443-.074,.583-.179,.14-.436,.108-.576-.07-.046-.065-.957-1.213-2.783-1.059-.143,.012-.275-.051-.357-.157Z" style="fill:#263238;"></path><path d="M250.999,227.169c1.239-1.87,4.106-2.547,5.878-1.172-.087-1.595,1.242-3.136,2.832-3.284,1.59-.148,3.181,1.12,3.39,2.703,.592-1.203,2.294-1.556,3.486-.941,1.191,.615,1.878,1.947,2.054,3.276,.108,.815,.066,1.691,.493,2.394,.668,1.101,2.139,1.297,3.36,1.705,2.052,.686,3.774,2.3,4.59,4.305,.816,2.004,.712,4.362-.277,6.287,.974,.761,1.146,1.876,1.487,3.064l-6.492-1.585c-.366-3.902-6.004-3.374-8.676-3.468-1.92-.067-3.574-.708-4.812-1.283-1.238-.576-1.422-1.738-.909-3.003-2.242-.066-4.525-.969-5.922-2.723-1.397-1.755-1.722-4.405-.484-6.275Z" style="fill:#263238;"></path><path d="M282.832,242.061c-.031,0-.062-.006-.093-.018-1.078-.432-2.693-.507-4.218-.195-.131,.027-.267-.06-.295-.195-.027-.135,.06-.268,.195-.295,1.634-.334,3.318-.253,4.503,.222,.128,.051,.19,.197,.14,.325-.039,.098-.133,.157-.232,.157Z" style="fill:#263238;"></path><path d="M278.658,241.83c-.081,0-.161-.04-.209-.113-.076-.116-.044-.271,.072-.346,1.357-.891,2.371-2.303,2.78-3.874,.035-.133,.168-.218,.306-.179,.133,.035,.213,.171,.179,.305-.44,1.689-1.53,3.208-2.991,4.166-.042,.028-.09,.041-.137,.041Z" style="fill:#263238;"></path><path d="M250.066,255.558c.103-1.072,.591-2.134,1.53-2.663,.939-.529,2.132-.538,3.113-.092,.981,.445,1.743,1.317,2.13,2.322,.192,.501,.293,1.08,.061,1.564-.266,.557-.916,.847-1.533,.858-.617,.011-1.212-.206-1.788-.427-.576-.221-1.164-.451-1.781-.468-.295-.008-.6,.032-.879-.066,0,0-.921-.31-.852-1.029Z" style="fill:#263238;"></path><path d="M256.295,254.122c-.26-.048-4.31-.813-4.461-.953-.13-.121-.006-.347,.04-.421,.142-.064,.283-.132,.433-.174,.039-.011,.083-.021,.126-.031,.758-.181,1.582-.106,2.295,.218,.642,.292,1.156,.787,1.567,1.362Z" style="fill:#fff;"></path><path d="M252.673,255.577c1.671-.076,3.898,1.491,3.923,1.508-.323,.295-.782,.454-1.228,.462-.617,.011-1.212-.206-1.789-.427-.576-.221-1.164-.451-1.781-.468-.295-.008-.601,.032-.879-.066,0,0-.221-.076-.439-.236,.324-.271,1.024-.721,2.193-.774Z" style="fill:#fd504e;"></path><path d="M266.398,256.517c-.049,0-.098-.014-.141-.044-.114-.077-.144-.233-.065-.347,.448-.656,1.062-1.186,1.775-1.53,.486-.235,1.223-.479,1.979-.284,.749,.187,1.323,.797,1.397,1.484,.015,.137-.085,.26-.223,.275-.134,.011-.26-.085-.275-.223-.051-.475-.479-.918-1.021-1.053-.609-.15-1.229,.051-1.641,.25-.635,.307-1.182,.778-1.581,1.361-.048,.071-.127,.109-.206,.109Z" style="opacity:.2;"></path></g><g><path d="M237.139,291.364c.221,.55,11.548,31.583,17.424,33.539,5.877,1.956,38.038,1.754,38.038,1.754l1.786-6.452-31.887-6.908-10.733-24.306-14.629,2.372Z" style="fill:#faac6d;"></path><path d="M246.747,273.209s-8.516-.557-10.578,7.186c-1.088,4.085,.966,29.032,2.124,29.096,1.158,.064,24.208-2.973,24.208-2.973l-15.754-33.309Z" style="fill:#DB7C0C;"></path><path d="M291.855,319.743l8.968-.199c.777-.05,1.872,.283,2.49,.756l6.015,4.999s-.012,1.579-1.231,1.184l.488,.636s-.36,1.401-2.182,.616c-1.495-.644-3.208-2.258-3.208-2.258l2.464,2.489s-.225,1.478-1.896,.795c-1.671-.683-3.715-2.229-3.715-2.229,0,0-7.126,1.511-8.71,.632-1.584-.879-2.482-5.194-2.482-5.194l2.999-2.227Z" style="fill:#faac6d;"></path><path d="M303.499,325.831c-.032,0-.065-.013-.09-.038-.018-.019-1.799-1.855-2.613-2.229-.37-.168-1.944-.029-2.519,.04-.07,.013-.131-.041-.139-.109s.041-.131,.109-.139c.219-.026,2.152-.249,2.651-.019,.857,.392,2.615,2.204,2.689,2.281,.048,.05,.047,.129-.003,.177-.024,.023-.056,.035-.087,.035Z" style="fill:#e97f3f;"></path><path d="M308.097,326.607c-.011,0-.021,0-.031-.004-.046-.012-.079-.048-.09-.09-.343-.434-5.003-4.882-5.838-5.059-.894-.188-4.049,0-4.08,.003h-.008c-.065,0-.121-.051-.125-.117-.004-.069,.049-.128,.117-.133,.131-.008,3.221-.193,4.146,.003,.933,.196,5.942,4.938,6.032,5.229,.014,.044,.002,.096-.029,.128-.023,.025-.06,.039-.095,.039Z" style="fill:#e97f3f;"></path><path d="M240.542,309.27l22.886-2.868-4.123-11.403s6.458,12.335,5.631,12.921c-.827,.586-24.135,3.876-24.135,3.876l-.259-2.526Z" style="opacity:.3;"></path></g></g><g><g><g><path d="M329.369,309.419c-.203,2.558,1.423,4.635,3.637,4.635h70.167c2.225,0,4.191-2.077,4.394-4.635l4.168-51.638c.045-.532,.011-1.039-.09-1.506-.395-1.818-1.785-3.129-3.547-3.129h-70.166c-2.226,0-4.19,2.078-4.394,4.635l-4.168,51.638Z" style="fill:#263238; isolation:isolate;"></path><path d="M329.369,309.419c-.203,2.558,1.423,4.635,3.637,4.635h70.167c2.225,0,4.191-2.077,4.394-4.635l4.168-51.638c.045-.532,.011-1.039-.09-1.506-.395-1.818-1.785-3.129-3.547-3.129h-70.166c-2.226,0-4.19,2.078-4.394,4.635l-4.168,51.638Z" style="fill:#fff; opacity:.7;"></path><path d="M333.254,314.055h69.918c2.225,0,4.191-2.077,4.394-4.635l4.168-51.638c.045-.532,.011-1.039-.09-1.506h-69.918c-2.214,0-4.179,2.077-4.394,4.636l-4.168,51.638c-.045,.533-.011,1.039,.09,1.506Z" style="fill:#263238; isolation:isolate;"></path><path d="M333.254,314.055h69.918c2.225,0,4.191-2.077,4.394-4.635l4.168-51.638c.045-.532,.011-1.039-.09-1.506h-69.918c-2.214,0-4.179,2.077-4.394,4.636l-4.168,51.638c-.045,.533-.011,1.039,.09,1.506Z" style="fill:#fff; isolation:isolate; opacity:.5;"></path><polygon points="380.306 302.013 366.201 302.076 368.864 327.698 355.075 327.698 355.075 330.69 392.392 330.779 392.392 327.827 383.399 327.655 380.306 302.013" style="fill:#263238; isolation:isolate;"></polygon></g><path d="M366.201,302.076c.041,.379-3.123,11.979-3.123,11.979h4.41l-1.287-11.979Z" style="opacity:.3;"></path><polygon points="381.758 314.055 380.306 302.013 383.95 314.055 381.758 314.055" style="opacity:.3;"></polygon></g><g><g><rect x="398.296" y="331.923" width="4.295" height="118.122" transform="translate(800.888 781.968) rotate(180)" style="fill:#263238; isolation:isolate;"></rect><rect x="398.296" y="331.923" width="4.295" height="118.122" transform="translate(800.888 781.968) rotate(180)" style="fill:#fff; isolation:isolate; opacity:.3;"></rect></g><g><rect x="429.167" y="331.923" width="4.295" height="118.122" transform="translate(862.628 781.968) rotate(180)" style="fill:#263238; isolation:isolate;"></rect><rect x="429.167" y="331.923" width="4.295" height="118.122" transform="translate(862.628 781.968) rotate(180)" style="fill:#fff; isolation:isolate; opacity:.3;"></rect><polygon points="433.461 339.393 433.461 347.016 429.167 345.1 429.167 338.744 433.461 339.393" style="opacity:.2;"></polygon><polygon points="402.591 339.393 402.591 347.016 398.296 345.1 398.296 338.744 402.591 339.393" style="opacity:.2;"></polygon></g><g><rect x="306.791" y="331.923" width="4.295" height="118.122" transform="translate(617.877 781.968) rotate(180)" style="fill:#263238; isolation:isolate;"></rect><rect x="306.791" y="331.923" width="4.295" height="118.122" transform="translate(617.877 781.968) rotate(180)" style="fill:#fff; isolation:isolate; opacity:.3;"></rect><polygon points="311.086 339.393 311.086 347.016 306.791 345.1 306.791 338.744 311.086 339.393" style="opacity:.2;"></polygon></g><g><rect x="267.363" y="331.923" width="4.295" height="118.122" transform="translate(539.021 781.968) rotate(180)" style="fill:#263238; isolation:isolate;"></rect><rect x="267.363" y="331.923" width="4.295" height="118.122" transform="translate(539.021 781.968) rotate(180)" style="fill:#fff; isolation:isolate; opacity:.3;"></rect><polygon points="271.658 339.311 271.658 346.935 267.363 345.018 267.363 338.662 271.658 339.311" style="opacity:.2;"></polygon></g><g><rect x="262.016" y="330.65" width="177.011" height="8.743" transform="translate(701.044 670.043) rotate(180)" style="fill:#263238; isolation:isolate;"></rect><rect x="262.016" y="330.65" width="41.524" height="8.743" transform="translate(565.556 670.043) rotate(180)" style="isolation:isolate; opacity:.3;"></rect></g></g><polygon points="380.306 302.013 366.201 302.076 368.864 327.698 355.075 327.698 355.075 330.69 392.392 330.779 392.392 327.827 383.399 327.655 380.306 302.013" style="fill:#fff; isolation:isolate; opacity:.6;"></polygon><polygon points="355.075 330.69 355.075 327.698 374.252 327.698 374.252 330.779 355.075 330.69" style="opacity:.3;"></polygon><g><rect x="293.069" y="328.129" width="46.165" height="2.53" style="fill:#263238; isolation:isolate;"></rect><rect x="293.069" y="328.129" width="46.165" height="2.53" style="fill:#fff; isolation:isolate; opacity:.5;"></rect><rect x="293.069" y="328.129" width="15.901" height="2.53" style="isolation:isolate; opacity:.3;"></rect></g></g></g></g><g id="freepik--Character_1--inject-97"><g><g><path d="M204.989,123.128c4.039-6.728,13.609-28.339,11.724-38.405-1.592-8.505-6.18-11.646-9.355-12.809-1-1.914-3.689-4.942-10.865-6.274-7.463-1.385-20.107,1.332-28.186,13.835-8.079,12.503-6.691,14.576-24.373,17.69-7.955,1.401-17.056,12.043-14.171,20.506,2.885,8.464,10.46,9.7,11.422,9.893l39.471,21.506s5.811,8.594,15.061,6.176c19.02-4.973,5.233-25.39,9.273-32.118Z" style="fill:#263238;"></path><path d="M180.128,104.711l-.003-.006c-.97-2.134-3.485-3.077-5.618-2.107-.789,.334-1.456,.904-1.909,1.632-.102,.158-.193,.324-.271,.495-2.39,6.064-1.278,9.784-5.671,11.243l12.594,13.752c-1.203-1.927-.755-8.195,.621-10.799,.131-.216,.294-.448,.382-.693,.119-.221,.301-.432,.39-.677,1.09-1.849,2.588-4.131,4.391-7.148,.038-.105,.072-.198,.106-.292l-5.012-5.402Z" style="fill:#fdbbb5;"></path><path d="M185.469,110.27h0c-.053,.095-.09,.197-.11,.303-1.803,3.016-3.3,5.299-4.391,7.147-.146,.216-.277,.442-.39,.677h0c-.129,.242-.241,.492-.337,.749h0c-3.847-4.042-6.364-9.166-7.211-14.683h0c.443-.719,1.086-1.294,1.851-1.653,2.123-.99,4.647-.077,5.646,2.043l4.941,5.416Z" style="isolation:isolate; opacity:.2;"></path><path d="M180.711,81.247c-6.041,10.509-8.822,14.808-7.305,23.42,2.299,12.945,16.081,18.208,25.095,9.764,8.041-7.648,16.603-23.487,9.711-34.162-6.892-10.675-21.444-9.539-27.501,.978Z" style="fill:#fdbbb5;"></path><path d="M176.652,91.088c-.046,0-.092-.012-.133-.039-.117-.073-.152-.228-.078-.345,.585-.93,.783-2.079,.541-3.151-.241-1.072-.912-2.024-1.84-2.614-.117-.074-.151-.229-.077-.345,.074-.116,.229-.15,.345-.077,1.04,.659,1.79,1.726,2.061,2.926s.05,2.486-.606,3.527c-.047,.075-.128,.117-.211,.117Z" style="opacity:.2;"></path><path d="M194.168,69.712c-3.153,2.739-6.097,.737-9.833,2.606-3.736,1.868-7.351,5.338-6.965,9.489,.238,1.178-4.398,2.705-4.291,3.903-.096,3.331,1.262,5.097-.52,7.91-1.648,2.624-3.694,5.658-2.416,8.363,1.062,2.264,.95,4.904-.3,7.07-.383,.681-4.255,1.134-4.762,1.728-.72,.871,1.575,2.584,3.696,3.072,.81,.186,1.537,.62,2.27,.228,.119-.066,.234-.139,.343-.219,3.606-2.219,6.036-5.931,6.628-10.125,.319-2.379,.52-4.76,.839-7.139,.192-2.413,2.37-3.867,3.88-5.758,3.689-4.076,41.161-8.267,16.059-22.434-.046-.186-.163-.347-.326-.448-.785-.41-1.726-.386-2.49,.063-.665,.495-1.273,1.063-1.812,1.693Z" style="fill:#263238;"></path><path d="M201.268,100.937c-.686,1.048-.726,2.29-.089,2.775,.637,.484,1.711,.027,2.398-1.021,.686-1.048,.726-2.29,.089-2.774-.637-.484-1.71-.027-2.397,1.021Z" style="fill:#263238;"></path><path d="M192.542,90.961c.082,.133,.215,.23,.377,.257,2.529,.413,3.348,2.459,3.357,2.483,.121,.304,.456,.445,.753,.305,.296-.141,.438-.505,.319-.814-.042-.107-1.068-2.677-4.207-3.189-.313-.051-.616,.18-.678,.515-.029,.162,.003,.318,.08,.443Z" style="fill:#263238;"></path><path d="M208.764,96.069c.124,.039,.26,.025,.383-.051,.252-.158,.349-.522,.216-.812-1.334-2.909-3.707-3.162-3.809-3.17-.284-.026-.536,.219-.562,.549-.027,.329,.182,.617,.466,.645,.093,.008,1.93,.235,2.99,2.548,.069,.15,.185,.251,.316,.292Z" style="fill:#263238;"></path><path d="M198.971,98.53s-1.142,4.819-1.075,8.39c.012,.624-.604,1.075-1.204,.905-1.545-.438-2.676-1.881-2.676-1.881l4.955-7.413Z" style="fill:#d7504d;"></path><path d="M203.416,99.77l2.654,1.112s-2.467,.789-2.654-1.112Z" style="fill:#263238;"></path><path d="M193.493,97.551c-.029,0-.058-.003-.087-.01-.202-.048-.326-.25-.278-.452,.177-.74-.115-1.587-.71-2.06-.595-.475-1.484-.568-2.167-.23-.186,.093-.411,.016-.502-.169-.092-.185-.016-.41,.169-.502,.948-.47,2.14-.343,2.967,.315s1.218,1.792,.972,2.821c-.041,.172-.195,.288-.364,.288Z" style="fill:#263238;"></path><path d="M191.139,109.034c-.159,0-.306-.101-.357-.26-.545-1.689-1.847-3.108-3.483-3.796-.191-.081-.28-.3-.2-.491,.081-.191,.303-.28,.491-.2,1.834,.772,3.294,2.363,3.906,4.257,.063,.197-.044,.409-.242,.472-.039,.012-.077,.018-.115,.018Z" style="fill:#263238;"></path></g><g><path d="M93.29,431.677l1.311,1.752,2.509-1.142,1.735,7.774,10.976,14.704s4.075,.569,.705-7.843c-.153-.383-.278-.806-.364-1.277-1.052-5.051,.843-14.814,.843-14.814l-6.022-8.068s-.611,.022-1.646,.214c-2.418,.454-7.247,1.735-10.046,8.7Z" style="fill:#DB7C0C;"></path><path d="M93.29,431.677l1.311,1.752,2.509-1.142,1.735,7.774,10.976,14.704s4.075,.569,.705-7.843c-.153-.383-.278-.806-.364-1.277-1.052-5.051,.843-14.814,.843-14.814l-6.022-8.068s-.611,.022-1.646,.214c-2.418,.454-7.247,1.735-10.046,8.7Z" style="opacity:.2;"></path></g><path d="M103.336,422.977l-.024,.018c1.972,.172,.421,8.944,1.312,13.83,.801,4.359,2.769,8.447,5.538,8.82-1.052-5.051,2.143-16.676,2.143-16.676l-4.843-6.488s-3.089,.304-4.125,.495Z" style="fill:#d7504d;"></path><g><path d="M106.968,453.889l2.175-.047,.55-2.72,7.265,3.133,18.242-.366s2.842-2.999-5.893-5.169c-.397-.099-.811-.244-1.24-.45-4.677-2.097-11.417-9.364-11.417-9.364l-10.009,.201s-.339,.513-.791,1.472c-1.049,2.243-2.844,6.942,1.119,13.31Z" style="fill:#DB7C0C;"></path><path d="M105.85,440.579v.03c1.292-1.512,7.438,4.893,11.888,7.025,3.974,1.897,8.411,2.681,10.33,.636-4.677-2.097-12.235-12.011-12.235-12.011l-8.037,.407s-1.494,2.953-1.946,3.913Z" style="fill:#fdbbb5;"></path></g><g><path d="M124.634,352.356c4.69-13.79,10.499-27.378,17.585-38.422-31.576-85.073-31.411-123.421-31.411-123.421l35.951-.751,4.118,14.251s9.699,35.488,12.729,55.91l8.417,45.371,.003,.128c.699,9.443-1.197,18.874-5.502,27.277-4.703,9.182-13.128,20.139-17.673,30.024-5.979,13.046-11.607,26.116-16.403,37.805-5.054,12.32-9.152,23.08-11.693,30.549-2.541,.34-10.32-4.128-12.616-8.273,0,0,4.725-35.836,16.495-70.448Z" style="fill:#263238;"></path><path d="M134.86,293.32l-13.253-39.461c.152-2.639,5.382-13.298,10.14-17.556,0,0,8.406,23.938,3.113,57.018Z" style="opacity:.2;"></path><path d="M132.447,400.528c-5.054,12.32-9.152,23.08-11.692,30.549-2.541,.34-10.32-4.128-12.616-8.273,0,0,4.725-35.836,16.495-70.448,2.816,14.137,6.008,32.007,7.813,48.172Z" style="opacity:.2;"></path></g><path d="M137.696,190.755s-11.782,94.91-12.947,116.248c0,0-6.377,103.525-4.34,129.472l-18.834,1.295s-14.253-78.026-8.85-128.39c.425-6.56-6.273-49.154-7.538-66.151-3.044-40.89,13.335-52.47,13.335-52.47l39.175-.004Z" style="fill:#263238;"></path><path d="M112.656,181.01c5.522-11.25,13.574-33.117,19.484-57.625,1.921-7.97,12.082-9.839,12.082-9.839,0,0,7.03,1.653,7.988,2.096,1.053,.48,2.126,.993,3.19,1.519,8.008,3.985,14.529,7.305,21.093,11.81,1.649,1.136,3.315,2.342,4.953,3.53,.521,.394,4.096,2.634,4.603,3.019,0,0,2.851,17.362-1.509,25.76-2.446,4.686-1.442,7.949-8.216,18.597-4.479,7.305-16.26,14.764-22.981,24.777l-40.687-23.645Z" style="fill:#fff;"></path><g><path d="M189.179,135.323c3.723,5.8,4.943,12.848,3.427,19.571-2.719,12.06-10.11,28.618-10.11,28.618l25.802-5.303,5.355,14.726s-43.876,17.451-47.323,16.445c-10.193-2.974-2.804-26.049-2.804-26.049l25.235-48.657,.417,.65Z" style="fill:#DB7C0C;"></path><path d="M179.107,124.914s3.841,25.828-.169,40.357c-2.637,9.554-26.373,29.014-29.608,35.555,0,0,8.314,25.843,11.61,44.58l7.973-3.054-10.122-37.574s23.493-27.656,26.819-36.123c3.325-8.467,3.152-33.982,3.152-33.982l-4.998-3.517-4.657-6.242Z" style="fill:#DB7C0C;"></path></g><path d="M170.84,179.402s6.634-5.578,10.12-12.323c3.486-6.744,6.31-11.64,6.31-11.64l-4.062-9.885,4.976-6.039s-2.227-4.323-4.17-8.548c-1.328-2.886-4.346-7.865-5.034-8.038,0,0,4.392,35.131-1.397,44.911-5.583,9.433-6.742,11.563-6.742,11.563Z" style="fill:#DB7C0C;"></path><path d="M170.84,179.402s6.634-5.578,10.12-12.323c3.486-6.744,6.31-11.64,6.31-11.64l-4.062-9.885,4.976-6.039s-2.227-4.323-4.17-8.548c-1.328-2.886-4.346-7.865-5.034-8.038,0,0,4.392,35.131-1.397,44.911-5.583,9.433-6.742,11.563-6.742,11.563Z" style="opacity:.3;"></path><path d="M161.156,201.961l17.014-22.416-16.067,26.553s-.777-2.273-.946-4.137Z" style="opacity:.3;"></path><g><path d="M179.882,132.134l-.85-9.993-4.902,2.673-4.03-9.784-5.036-.528-2.747,12.531s6.654,8.979,7.123,9.263,10.441-4.162,10.441-4.162Z" style="fill:#fff;"></path><polyline points="179.919 132.6 174.76 136.46 172.717 128.239 165.591 132.124 161.92 126.407 164.817 134.182 172.014 129.555 174.546 138.67" style="opacity:.3;"></polyline></g><path d="M366.148,140.152c-.228-1.173-.635-2.278-1.177-3.329-1.266,15.55-28.283,34.613-63.715,44.141-35.432,9.528-66.803,6.164-73.681-7.196-.1,1.223-.059,2.427,.168,3.6,3.123,16.09,36.638,20.802,74.857,10.525,38.219-10.277,66.67-31.651,63.546-47.741Z" style="fill:#fff; opacity:.2;"></path><g><path d="M108.138,231.968l-29.989-13.9c7.23-17.573,24.111-41.65,37.138-48.068,0,0,2.872-7.709,6.134-18.894,1.596-5.437,3.308-11.195,4.89-16.288,2.265-7.349,4.269-13.363,5.227-15.14,2.977-5.563,14.685-10.155,14.685-10.155l18.842,4.978s-5.988,15.757-17.367,38.689c-11.774,23.73-39.56,78.777-39.56,78.777Z" style="fill:#DB7C0C;"></path><path d="M111.109,172.625l20.454,12.823,2.569-5.118,7.991-18.571-3.259-3.203,3.791-23.02-27.369,34.464s-2.318,1.127-3.388,2.047" style="opacity:.3;"></path><path d="M165.064,114.85s-1.248,16.535-22.941,46.91l3.203-29.339,7.639-3.921,1.072-13.321s7.601-.207,11.027-.676v.347Z" style="fill:#DB7C0C;"></path><path d="M165.064,114.85s-1.131,14.555-20.978,44.473l1.24-26.901,7.639-3.921,1.072-13.321s7.601-.207,11.027-.676v.347Z" style="opacity:.3;"></path><path d="M80.805,203.611c-.094,0-.188-.026-.272-.081-.231-.151-.297-.461-.146-.692,.111-.17,11.154-17.051,18.758-24.258,.201-.19,.518-.182,.707,.019,.19,.2,.182,.517-.019,.707-7.518,7.126-18.498,23.91-18.608,24.079-.096,.147-.256,.227-.419,.227Z" style="fill:#DB7C0C;"></path><path d="M101.707,177.301c-.135,0-.269-.054-.367-.161-.188-.203-.175-.519,.028-.707l2.983-2.753c.202-.187,.519-.176,.706,.028,.188,.203,.175,.519-.028,.707l-2.983,2.753c-.096,.088-.217,.132-.339,.132Z" style="fill:#DB7C0C;"></path></g><g><path d="M131.345,184.005h99.229v13.875h-99.229c-3.529,0-6.394-2.865-6.394-6.394v-1.086c0-3.529,2.865-6.394,6.394-6.394Z" transform="translate(-49.526 62.886) rotate(-17.65)" style="fill:#263238;"></path><g style="opacity:.2;"><path d="M131.345,184.005h99.229v13.875h-99.229c-3.529,0-6.394-2.865-6.394-6.394v-1.086c0-3.529,2.865-6.394,6.394-6.394Z" transform="translate(-49.526 62.886) rotate(-17.65)" style="fill:#fff;"></path></g><path d="M366.148,140.152c-.228-1.173-.635-2.278-1.177-3.329-1.266,15.55-28.283,34.613-63.715,44.141-35.432,9.528-66.803,6.164-73.681-7.196-.1,1.223-.059,2.427,.168,3.6,3.123,16.09,36.638,20.802,74.857,10.525,38.219-10.277,66.67-31.651,63.546-47.741Z" style="fill:#263238;"></path><path d="M291.3,129.484c35.432-9.528,66.802-6.164,73.681,7.196,.099-1.223-1.551-5.726-1.778-6.899-3.123-16.09-37.845-20.713-76.065-10.436-38.219,10.277-66.67,31.651-63.546,47.741,.228,1.173,3.453,5.488,3.994,6.539,1.266-15.55,28.283-34.613,63.715-44.141Z" style="fill:#263238;"></path><g><path d="M221.552,183.921s-4.874-5.841-7.225-6.152c-2.351-.311-1.182,2.865-1.182,2.865,0,0-1.501-3.416-3.038-2.975-1.844,.53-.604,3.852-.604,3.852,0,0-1.34-2.739-2.68-2.255-1.391,.502-.258,4.352-.258,4.352,0,0-1.308-1.75-2.05-.886-.741,.864,1.506,9.081,3.776,10.996,2.27,1.915,12.711-1.351,14.843-2.532,2.132-1.181,3.164-4.092,2.957-8.324l-4.538,1.059h0Z" style="fill:#fdbbb5;"></path><path d="M212.977,180.696l.006,.014,2.902,5.83c.039,.078,.143,.108,.233,.066,.09-.042,.131-.143,.092-.218l-2.902-5.83c-.039-.078-.144-.108-.233-.066-.084,.04-.126,.129-.098,.204Z" style="opacity:.2;"></path><path d="M209.398,181.747v.004l2.344,5.822c.033,.081,.134,.117,.226,.081,.093-.037,.13-.114,.108-.213l-2.342-5.822c-.033-.081-.134-.117-.226-.081-.091,.036-.139,.129-.11,.209Z" style="opacity:.2;"></path><path d="M206.47,183.872l1.617,4.376c.03,.082,.13,.121,.223,.086,.093-.034,.144-.128,.114-.21l-1.617-4.376c-.03-.082-.131-.12-.223-.086-.093,.034-.144,.129-.113,.211Z" style="opacity:.2;"></path></g><g><path d="M278.443,172.865c-.103,0-.205-.042-.279-.125-.139-.154-.125-.392,.029-.53l35.312-31.572c.154-.137,.392-.125,.529,.03,.139,.154,.125,.392-.029,.53l-35.312,31.572c-.071,.064-.161,.095-.25,.095Z" style="fill:#263238;"></path><path d="M292.632,168.925c-.104,0-.208-.043-.282-.128-.137-.156-.12-.393,.035-.529l16.354-14.309c.156-.136,.393-.121,.529,.035,.137,.156,.12,.393-.035,.529l-16.354,14.309c-.071,.062-.159,.093-.247,.093Z" style="fill:#263238;"></path><path d="M289.171,154.081c-.104,0-.208-.043-.282-.128-.137-.156-.12-.393,.035-.529l16.354-14.308c.156-.135,.393-.12,.529,.035,.137,.156,.12,.393-.035,.529l-16.354,14.308c-.071,.062-.159,.093-.247,.093Z" style="fill:#263238;"></path></g><g><path d="M184.082,182.632l-12.138-3.272-6.57,8.026c-2.401,6.205,9.969,7.845,9.969,7.845l1.348,2.717c1.095,2.206,6.078,3.523,7.704,1.655l3.486-5.189c.846-.971,.688-3.918,.237-5.118l-1.716-4.556c-.39-1.037-1.253-1.821-2.321-2.109Z" style="fill:#fdbbb5;"></path><path d="M136.814,159.066l8.896-35.869,.513-13.689s-14.098-5.311-20.815,10.47c-6.536,15.357-13.963,43.431-10.121,49.984s49.777,21.81,49.777,21.81l8.022-12.269-36.272-20.436Z" style="fill:#DB7C0C;"></path></g></g></g><g style="opacity:.4;"><path d="M361.67,145.045c-.224-1.155-.626-2.243-1.158-3.278-1.246,15.308-27.843,34.075-62.724,43.454-34.881,9.379-65.764,6.069-72.535-7.084-.098,1.204-.058,2.389,.166,3.544,3.075,15.84,36.068,20.479,73.693,10.362,37.625-10.117,65.633-31.159,62.558-46.999Z" style="fill:#fff;"></path></g></g></svg>
