<svg width="540" height="315" viewBox="0 0 540 315" fill="none" xmlns="http://www.w3.org/2000/svg">
<g clip-path="url(#clip0_267_277)">
<path d="M146.443 75.6399L167.489 61.89L176.517 90.6181L154.4 104.632L146.443 75.6399Z" fill="#FFB6B6"/>
<path opacity="0.1" d="M146.443 75.6399L167.489 61.89L176.517 90.6181L154.4 104.632L146.443 75.6399Z" fill="black"/>
<path d="M149.435 64.6927L170.198 101.829C170.198 101.829 155.754 172.598 141.31 178.904C126.867 185.211 100.236 216.041 100.236 216.041L66.8357 182.408L83.0847 145.272C83.0847 145.272 122.353 61.89 132.734 61.89C143.116 61.89 149.435 64.6927 149.435 64.6927Z" fill="#F9A826"/>
<path d="M121.383 306.78H73.0509L69.9952 300.438L57.5195 274.548L54.6489 268.592C54.6489 268.592 43.8162 237.762 46.073 209.735C48.3298 181.707 71.8006 175.401 71.8006 175.401H72.7665L101.5 214.597L99.785 251.075L108.884 274.548L121.383 306.78Z" fill="#2F2E41"/>
<path d="M82.9494 306.78H69.9954V277.001L82.9494 306.78Z" fill="#2F2E41"/>
<path d="M439.04 98.4892L443.871 145.274L413.345 145.885V105.21L439.04 98.4892Z" fill="#A0616A"/>
<path d="M511.752 261.571L510.141 274.548L506.142 306.78H425.804C426.431 299.556 427.289 289.157 428.205 277.932C428.295 276.811 428.39 275.683 428.48 274.548C430.778 246.331 433.292 214.401 433.292 214.401L443.854 216.391L464.345 220.245L472.696 221.814L495.056 226.026C506.205 228.121 513.873 244.447 511.752 261.571Z" fill="#F2F2F2"/>
<path d="M476.045 306.78H432.47C433.134 305.567 433.508 304.867 433.508 304.867L446.571 301.518L473.485 294.623C473.485 294.623 474.713 299.549 476.045 306.78Z" fill="#2F2E41"/>
<path d="M416.099 306.78H350.295C350.95 304.762 351.627 302.737 352.322 300.719C353.252 298.021 354.245 295.618 355.297 293.481C355.996 292.058 356.718 290.755 357.463 289.564C359.652 286.067 362.035 283.524 364.545 281.779C373.504 275.522 384.062 279.355 393.053 285.591C396.429 287.931 399.584 290.608 402.351 293.214C407.226 297.811 410.904 302.197 412.47 304.145C413.012 304.811 413.301 305.196 413.301 305.196L416.099 306.78Z" fill="#2F2E41"/>
<path d="M363.895 306.78H354.561L357.02 302.344L358.411 299.836L359.006 300.586L363.895 306.78Z" fill="#FFB6B6"/>
<path d="M479.231 306.78H398.853L402.351 293.214L407.158 274.548L409.573 265.173L407.578 251.993C407.578 251.993 406.594 250.914 405.095 248.973C399.755 242.106 387.871 224.421 390.602 206.259C393.707 185.589 397.607 145.307 398.433 136.625C398.537 135.539 398.591 134.95 398.591 134.95L410.191 130.536L410.575 130.389L411.82 129.913H442.892L465.745 153.939L465.74 154.191L464.345 220.245L463.749 248.504C463.749 248.504 463.032 252.582 463.203 258.916C463.316 263.26 463.844 268.662 465.307 274.548C466.855 280.805 469.459 287.602 473.734 294.237C476.961 299.247 478.527 303.465 479.231 306.78Z" fill="#F9A826"/>
<path d="M472.696 221.814C471.933 231.526 471.202 238.428 471.202 238.428L463.203 258.916L457.101 274.548L446.571 301.518L445.027 305.476L443.926 306.78H410.891L412.47 304.145L428.205 277.932L430.24 274.548L433.54 269.048L443.854 216.391L456.009 154.331C456.009 154.331 460.933 151.669 465.74 154.191C468.268 155.516 470.768 158.276 472.488 163.63C475.778 173.846 474.176 203.064 472.696 221.814Z" fill="#F9A826"/>
<path d="M414.583 220.119L405.095 248.973L396.686 274.548L393.053 285.591L391.622 289.949L379.359 306.78H351.591L356.168 297.951L357.869 294.658L364.545 281.779L368.291 274.548L378.46 254.915L381.173 165.495C381.623 150.663 388.902 138.674 398.376 136.64C398.396 136.636 398.415 136.631 398.433 136.625C401.511 135.665 406.404 135.385 410.191 141.067C410.322 141.257 410.448 141.46 410.575 141.67C411.211 142.714 411.812 143.94 412.362 145.377C412.416 145.517 412.47 145.664 412.52 145.811C412.678 146.26 412.832 146.75 412.972 147.276C417.806 164.751 414.583 220.119 414.583 220.119Z" fill="#F9A826"/>
<path d="M422.862 119.312C434.982 119.312 444.808 104.059 444.808 85.2443C444.808 66.4291 434.982 51.1765 422.862 51.1765C410.742 51.1765 400.917 66.4291 400.917 85.2443C400.917 104.059 410.742 119.312 422.862 119.312Z" fill="#A0616A"/>
<path d="M431.962 98.6382C431.962 98.6382 429.687 88.9081 428.397 83.859C427.107 78.81 427.948 72.2579 427.948 72.2579C427.948 72.2579 410.733 66.3591 403.992 72.2058C397.251 78.0524 396.797 48.6449 403.639 40.6412C403.639 40.6412 405.472 45.5845 404.76 47.0056L404.049 48.4268C404.049 48.4268 409.227 31.4289 417.97 30.5779C417.97 30.5779 422.114 35.7108 420.552 37.4051C418.99 39.0993 432.066 27.8273 434.341 37.5575C434.341 37.5575 442.679 39.8634 441.054 44.2842L441.191 47.3353C441.191 47.3353 448.748 46.1174 448.209 54.43C448.209 54.43 445.667 53.6436 444.041 55.3288C442.415 57.014 447.909 65.0046 447.909 65.0046C447.909 65.0046 451.211 98.3021 439.76 107.889C439.76 107.889 441.618 92.7358 437.247 95.213C432.876 97.6902 431.962 98.6382 431.962 98.6382Z" fill="#2F2E41"/>
<path d="M526.815 315H13.1847C5.91463 315 0 305.818 0 294.532C0 283.246 5.91463 274.065 13.1847 274.065H526.815C534.085 274.065 540 283.246 540 294.532C540 305.818 534.085 315 526.815 315Z" fill="#E6E6E6"/>
<path d="M509.298 211.677L508.299 284.018C508.203 291.021 504.518 296.62 500.006 296.62H414.283C409.877 296.62 406.24 291.274 406 284.445L403.452 212.104C403.193 204.727 406.976 198.524 411.735 198.524H501.005C505.655 198.524 509.398 204.459 509.298 211.677Z" fill="#3F3D56"/>
<path d="M184.641 93.1024C195.968 93.1024 205.15 78.8478 205.15 61.2638C205.15 43.6798 195.968 29.4251 184.641 29.4251C173.314 29.4251 164.131 43.6798 164.131 61.2638C164.131 78.8478 173.314 93.1024 184.641 93.1024Z" fill="#FFB6B6"/>
<path d="M150.338 144.571L152.595 182.408L167.941 278.402L154.683 285.616L132.283 181.007L129.189 138.965L150.338 144.571Z" fill="#FFB6B6"/>
<path d="M144.233 211.677L143.234 284.018C143.138 291.021 139.453 296.62 134.941 296.62H49.2178C44.8124 296.62 41.1754 291.274 40.9349 284.445L38.3874 212.104C38.1276 204.727 41.911 198.524 46.6702 198.524H135.94C140.59 198.524 144.333 204.459 144.233 211.677Z" fill="#3F3D56"/>
<path d="M170.384 297.109C179.33 297.109 186.582 292.129 186.582 285.987C186.582 279.845 179.33 274.865 170.384 274.865C161.439 274.865 154.187 279.845 154.187 285.987C154.187 292.129 161.439 297.109 170.384 297.109Z" fill="#FFB6B6"/>
<path d="M118.517 150.356L127.77 73.8017C127.77 73.8017 153.497 68.1962 154.4 81.5092C155.303 94.8222 153.755 159.885 153.755 159.885L118.517 150.356Z" fill="#F9A826"/>
<path d="M176.362 66.2699C176.362 66.2699 189.049 59.2407 194.401 55.4586C199.753 51.6765 210.385 78.0562 210.621 64.1242C210.858 50.1922 207.184 44.3498 207.184 44.3498C207.184 44.3498 206.266 13.8716 186.486 17.6821C186.486 17.6821 190.837 2.43349 176.556 0.0755802C162.274 -2.28233 140.056 51.2554 142.046 59.2563C144.035 67.2573 146.421 73.872 140.776 82.4267C135.13 90.9815 124.559 139.262 132.602 152.254C140.645 165.246 141.173 170.884 135.662 178.967C130.151 187.049 117.126 204.624 131.21 207.675C145.293 210.726 129.921 208.448 140.421 194.11C150.92 179.773 166.241 180.359 160.521 157.356C154.8 134.354 164.739 101.391 163.495 96.3904C162.252 91.3899 166.282 59.6359 166.282 59.6359C166.282 59.6359 175.661 57.4967 176.362 66.2699Z" fill="#2F2E41"/>
<path d="M345.068 214.679C334.941 271.231 293.8 305.649 253.175 291.546C212.566 277.446 187.845 220.165 197.977 163.615C208.1 107.056 249.241 72.6352 289.854 86.7347C330.477 100.834 355.195 158.123 345.068 214.679Z" fill="#F7931A"/>
<path d="M304.953 174.102C306.462 160.056 298.78 152.505 288.276 147.467L291.683 128.439L283.364 125.553L280.047 144.079C277.86 143.32 275.614 142.605 273.382 141.895L276.723 123.247L268.408 120.36L264.998 139.382C263.188 138.808 261.411 138.24 259.686 137.643L259.695 137.584L248.222 133.595L246.009 145.966C246.009 145.966 252.182 147.935 252.051 148.058C255.421 149.229 256.03 152.333 255.928 154.794L252.047 176.471C252.279 176.553 252.58 176.672 252.911 176.857C252.634 176.761 252.338 176.656 252.032 176.553L246.592 206.919C246.18 208.345 245.135 210.482 242.78 209.671C242.862 209.839 236.733 207.569 236.733 207.569L232.603 220.828L243.429 224.585C245.443 225.288 247.417 226.023 249.36 226.716L245.917 245.962L254.226 248.848L257.636 229.807C259.906 230.665 262.11 231.457 264.266 232.202L260.868 251.154L269.187 254.041L272.63 234.832C286.816 238.569 297.484 237.062 301.974 219.198C305.592 204.815 301.794 196.518 294.33 191.108C299.766 189.363 303.86 184.385 304.953 174.102ZM285.945 211.212C283.374 225.595 265.979 217.819 260.34 215.869L264.908 190.372C270.548 192.332 288.632 196.211 285.945 211.212ZM288.518 173.894C286.172 186.978 271.694 180.331 266.998 178.701L271.14 155.576C275.836 157.205 290.961 160.247 288.518 173.894Z" fill="white"/>
</g>
<defs>
<clipPath id="clip0_267_277">
<rect width="540" height="315" fill="white"/>
</clipPath>
</defs>
</svg>
