<svg width="527" height="459" viewBox="0 0 527 459" fill="none" xmlns="http://www.w3.org/2000/svg">
<g clip-path="url(#clip0_259_8015)">
<path d="M364.178 457.844H214.644C192.215 457.844 173.968 440.317 173.968 418.773V39.0703C173.968 17.527 192.215 0 214.644 0H364.178C386.606 0 404.853 17.527 404.853 39.0703C407.636 191.547 412.383 362.298 404.853 418.773C404.853 440.317 386.606 457.844 364.178 457.844Z" fill="#3F3D56"/>
<path d="M406.938 139.667C405.989 139.667 405.217 140.409 405.217 141.32V194.212C405.217 195.123 405.989 195.865 406.938 195.865C407.887 195.865 408.659 195.123 408.659 194.212V141.32C408.659 140.409 407.887 139.667 406.938 139.667Z" fill="#3F3D56"/>
<path d="M400.981 39.0706V418.767C400.981 437.518 385.787 452.857 366.575 454.047H366.566C366.282 454.064 365.998 454.08 365.706 454.089C365.198 454.113 364.691 454.122 364.174 454.122C364.174 454.122 362.282 453.989 358.823 453.741C355.33 453.493 350.245 453.122 343.904 452.634C342.002 452.493 339.998 452.336 337.881 452.171C333.665 451.841 329.036 451.477 324.072 451.064C322.093 450.907 320.046 450.733 317.955 450.56C307.269 449.675 295.301 448.642 282.679 447.469C280.546 447.279 278.395 447.08 276.226 446.874C275.659 446.816 177.841 423.196 177.841 418.767V39.0706C177.841 19.542 194.317 3.71582 214.648 3.71582H236.622C240.132 3.71582 242.954 6.34387 243.255 9.70746C243.281 9.93061 243.307 10.1537 243.35 10.3769C243.987 13.757 247.213 16.1123 250.792 16.1123H328.03C331.609 16.1123 334.835 13.757 335.472 10.3769C335.515 10.1537 335.541 9.93062 335.567 9.70746C335.868 6.34388 338.69 3.71582 342.2 3.71582H364.174C384.505 3.71582 400.981 19.542 400.981 39.0706Z" fill="white"/>
<path d="M173.108 99.9985C172.159 99.9985 171.387 100.74 171.387 101.651V114.874C171.387 115.786 172.159 116.527 173.108 116.527C174.057 116.527 174.829 115.786 174.829 114.874V101.651C174.829 100.74 174.057 99.9985 173.108 99.9985Z" fill="#3F3D56"/>
<path d="M173.108 139.667C172.159 139.667 171.387 140.409 171.387 141.32V166.94C171.387 167.851 172.159 168.592 173.108 168.592C174.057 168.592 174.829 167.851 174.829 166.94V141.32C174.829 140.409 174.057 139.667 173.108 139.667Z" fill="#3F3D56"/>
<path d="M173.108 176.03C172.159 176.03 171.387 176.772 171.387 177.683V203.303C171.387 204.214 172.159 204.955 173.108 204.955C174.057 204.955 174.829 204.214 174.829 203.303V177.683C174.829 176.772 174.057 176.03 173.108 176.03Z" fill="#3F3D56"/>
<path d="M236.057 9.50415H203.081C202.921 9.50415 202.791 9.62859 202.791 9.78209V13.3584C202.791 13.5119 202.921 13.6363 203.081 13.6363H236.057C236.217 13.6363 236.346 13.5119 236.346 13.3584V9.78209C236.346 9.62859 236.217 9.50415 236.057 9.50415Z" fill="#E6E6E6"/>
<path d="M347.638 13.6362C349.538 13.6362 351.079 12.1562 351.079 10.3305C351.079 8.50481 349.538 7.02478 347.638 7.02478C345.737 7.02478 344.196 8.50481 344.196 10.3305C344.196 12.1562 345.737 13.6362 347.638 13.6362Z" fill="#E6E6E6"/>
<path d="M357.102 13.6362C359.002 13.6362 360.543 12.1562 360.543 10.3305C360.543 8.50481 359.002 7.02478 357.102 7.02478C355.201 7.02478 353.66 8.50481 353.66 10.3305C353.66 12.1562 355.201 13.6362 357.102 13.6362Z" fill="#E6E6E6"/>
<path d="M366.566 13.6362C368.467 13.6362 370.008 12.1562 370.008 10.3305C370.008 8.50481 368.467 7.02478 366.566 7.02478C364.665 7.02478 363.125 8.50481 363.125 10.3305C363.125 12.1562 364.665 13.6362 366.566 13.6362Z" fill="#E6E6E6"/>
<path d="M13.3519 457.934C13.3519 458.525 13.8463 459 14.462 459H525.89C526.506 459 527 458.525 527 457.934C527 457.342 526.506 456.868 525.89 456.868H14.462C13.8463 456.868 13.3519 457.342 13.3519 457.934Z" fill="#CCCCCC"/>
<path d="M176.418 450.931L165.93 450.93L160.941 412.073L176.42 412.074L176.418 450.931Z" fill="#FFB6B6"/>
<path d="M140.485 450.703C140.159 451.231 139.986 452.936 139.986 453.55C139.986 455.439 141.58 456.969 143.546 456.969H176.025C177.367 456.969 178.454 455.925 178.454 454.637V453.338C178.454 453.338 180.061 449.434 176.753 444.622C176.753 444.622 172.641 448.39 166.498 442.489L164.686 439.337L151.572 448.549L144.304 449.408C142.713 449.596 141.303 449.379 140.485 450.703Z" fill="#2F2E41"/>
<path d="M118.418 396.96L107.931 396.927L103.07 358.054L118.549 358.103L118.418 396.96Z" fill="#FFB6B6"/>
<path d="M82.4869 396.622C82.1586 397.149 81.9806 398.853 81.9786 399.468C81.9723 401.356 83.5609 402.892 85.5269 402.898L118.006 402.997C119.347 403.001 120.438 401.96 120.442 400.672L120.447 399.373C120.447 399.373 122.066 395.474 118.774 390.652C118.774 390.652 114.65 394.407 108.526 388.488L106.725 385.33L93.5811 394.502L86.3094 395.339C84.7186 395.522 83.3092 395.301 82.4869 396.622Z" fill="#2F2E41"/>
<path d="M161.121 215.032L148.063 215.928C148.063 215.928 103.853 240.072 100.122 245.448C96.3913 250.823 91.2611 258.439 95.925 266.503C100.589 274.567 97.0392 372.202 97.0392 372.202L119.326 367.36L133.605 265.206L163.453 261.174C163.453 261.174 173.714 282.437 169.983 300.029C166.252 317.62 164.386 328.372 164.386 328.372L159.722 432.304L177.911 431.856L194.235 335.539L222.218 259.382L185.84 218.168L161.121 215.032Z" fill="#2F2E41"/>
<path d="M225.482 104.828L198.432 107.516L195.634 116.476L169.516 129.915L177.911 186.361L171.382 196.217L174.18 206.072C174.18 206.072 166.718 206.968 167.651 212.344L150.861 215.032C150.861 215.032 173.13 219.399 177.852 240.958C182.575 262.518 221.751 265.206 221.751 265.206L252.533 172.921L255.331 118.267L233.877 112.892L225.482 104.828Z" fill="#E6E6E6"/>
<path d="M211.227 101.428C222.84 101.428 232.255 92.3849 232.255 81.2295C232.255 70.0741 222.84 61.0309 211.227 61.0309C199.613 61.0309 190.198 70.0741 190.198 81.2295C190.198 92.3849 199.613 101.428 211.227 101.428Z" fill="#FFB6B6"/>
<path d="M200.298 99.4522C200.298 99.4522 181.642 98.5563 183.508 84.2208C178.89 68.9551 182.977 59.0433 197.499 55.5499C197.499 55.5499 201.23 54.6539 202.163 54.6539C214.432 54.6539 220.819 58.2378 220.819 58.2378C220.819 58.2378 219.886 54.6892 220.819 55.5675C221.751 56.4459 222.684 58.2378 222.684 58.2378C222.684 58.2378 232.012 62.7176 232.012 71.6773C232.012 80.6369 232.012 77.0531 232.012 77.0531C232.012 77.0531 230.146 77.0531 228.281 71.6773C226.415 66.3015 214.337 69.8854 214.337 69.8854L215.222 71.6773L212.424 70.7813L209.625 73.4692L207.76 72.5733C207.76 72.5733 200.298 72.5733 201.23 72.5733C202.163 72.5733 201.513 78.6622 201.513 78.6622L194.701 86.0127L202.163 99.4522H200.298Z" fill="#2F2E41"/>
<path d="M100.907 206.389C95.5965 209.173 92.7866 214.062 94.631 217.308C96.4754 220.554 102.276 220.929 107.586 218.145C109.911 216.926 111.756 215.304 112.942 213.593L135.29 201.525L129.171 191.572L107.79 204.525C105.65 204.557 103.232 205.171 100.907 206.389Z" fill="#FFB6B6"/>
<path d="M176.273 130.333C176.273 130.333 167.512 127.129 164.494 130.986C161.476 134.843 141.536 181.639 141.536 181.639L112.281 196.315L120.507 210.076L158.18 198.029L183.035 154.365L176.273 130.333Z" fill="#E6E6E6"/>
<path d="M452.532 284.019V378.992C452.532 387.391 445.419 394.223 436.675 394.223H192.29C183.546 394.223 176.433 387.391 176.433 378.992V284.019C176.433 275.621 183.546 268.788 192.29 268.788H436.675C445.419 268.788 452.532 275.621 452.532 284.019Z" fill="white"/>
<path d="M452.532 284.019V378.992C452.532 387.391 445.419 394.223 436.675 394.223H192.29C183.546 394.223 176.433 387.391 176.433 378.992V284.019C176.433 275.621 183.546 268.788 192.29 268.788H436.675C445.419 268.788 452.532 275.621 452.532 284.019ZM436.675 392.431C444.403 392.431 450.667 386.414 450.667 378.992V331.11C450.667 297.68 422.453 270.58 387.65 270.58H192.29C184.562 270.58 178.298 276.597 178.298 284.019V378.992C178.298 386.414 184.562 392.431 192.29 392.431H436.675Z" fill="#3F3D56"/>
<path d="M286.136 326.167H254.216C253.411 326.167 252.757 326.796 252.757 327.569C252.757 328.341 253.411 328.97 254.216 328.97H286.136C286.941 328.97 287.595 328.341 287.595 327.569C287.595 326.796 286.941 326.167 286.136 326.167Z" fill="#F9A826"/>
<path d="M334.64 326.167H302.72C301.915 326.167 301.261 326.796 301.261 327.569C301.261 328.341 301.915 328.97 302.72 328.97H334.64C335.445 328.97 336.099 328.341 336.099 327.569C336.099 326.796 335.445 326.167 334.64 326.167Z" fill="#F9A826"/>
<path d="M286.136 341.493H254.216C253.411 341.493 252.757 342.122 252.757 342.895C252.757 343.668 253.411 344.297 254.216 344.297H286.136C286.941 344.297 287.595 343.668 287.595 342.895C287.595 342.122 286.941 341.493 286.136 341.493Z" fill="#F9A826"/>
<path d="M334.64 341.493H302.72C301.915 341.493 301.261 342.122 301.261 342.895C301.261 343.668 301.915 344.297 302.72 344.297H334.64C335.445 344.297 336.099 343.668 336.099 342.895C336.099 342.122 335.445 341.493 334.64 341.493Z" fill="#F9A826"/>
<path d="M384.603 342.895C384.603 342.122 383.949 341.493 383.144 341.493H351.224C350.419 341.493 349.765 342.122 349.765 342.895C349.765 343.668 350.419 344.297 351.224 344.297H383.144C383.949 344.297 384.603 343.668 384.603 342.895Z" fill="#F9A826"/>
<path d="M267.481 313.929C268.285 313.929 268.94 313.3 268.94 312.527C268.94 311.754 268.285 311.126 267.481 311.126H235.561C234.756 311.126 234.101 311.754 234.101 312.527C234.101 313.3 234.756 313.929 235.561 313.929H267.481Z" fill="#F9A826"/>
<path d="M361.485 313.359H393.405C394.209 313.359 394.864 312.73 394.864 311.957C394.864 311.184 394.209 310.555 393.405 310.555H361.485C360.68 310.555 360.025 311.184 360.025 311.957C360.025 312.73 360.68 313.359 361.485 313.359Z" fill="#F9A826"/>
<path d="M280.928 313.654H347.105C347.909 313.654 348.564 313.025 348.564 312.252C348.564 311.479 347.909 310.85 347.105 310.85H280.928C280.123 310.85 279.468 311.479 279.468 312.252C279.468 313.025 280.123 313.654 280.928 313.654Z" fill="#F9A826"/>
<path d="M306.965 355.418H275.045C274.241 355.418 273.586 356.047 273.586 356.82C273.586 357.593 274.241 358.222 275.045 358.222H306.965C307.77 358.222 308.424 357.593 308.424 356.82C308.424 356.047 307.77 355.418 306.965 355.418Z" fill="#F9A826"/>
<path d="M410.056 283.303V378.276C410.056 386.675 402.943 393.507 394.199 393.507H295.325C286.581 393.507 279.468 386.675 279.468 378.276V283.303C279.468 274.905 286.581 268.072 295.325 268.072H394.199C402.943 268.072 410.056 274.905 410.056 283.303Z" fill="white"/>
<path d="M410.056 283.303V378.276C410.056 386.675 402.943 393.507 394.199 393.507H295.325C286.581 393.507 279.468 386.675 279.468 378.276V283.303C279.468 274.905 286.581 268.072 295.325 268.072H394.199C402.943 268.072 410.056 274.905 410.056 283.303ZM388.065 391.715C399.18 391.715 408.19 383.06 408.19 372.384V330.394C408.19 296.964 379.977 269.864 345.173 269.864H295.325C287.598 269.864 281.334 275.881 281.334 283.303V365.025C281.334 379.766 293.774 391.715 309.12 391.715L388.065 391.715Z" fill="#3F3D56"/>
<path d="M357.924 306.86H326.004C325.199 306.86 324.544 306.231 324.544 305.458C324.544 304.685 325.199 304.057 326.004 304.057H357.924C358.729 304.057 359.383 304.685 359.383 305.458C359.383 306.231 358.729 306.86 357.924 306.86Z" fill="#F9A826"/>
<path d="M357.924 336.753H326.004C325.199 336.753 324.544 336.124 324.544 335.351C324.544 334.578 325.199 333.949 326.004 333.949H357.924C358.729 333.949 359.383 334.578 359.383 335.351C359.383 336.124 358.729 336.753 357.924 336.753Z" fill="#F9A826"/>
<path d="M342.067 377.967H310.147C309.342 377.967 308.687 377.338 308.687 376.565C308.687 375.792 309.342 375.164 310.147 375.164H342.067C342.871 375.164 343.526 375.792 343.526 376.565C343.526 377.338 342.871 377.967 342.067 377.967Z" fill="#F9A826"/>
<path d="M375.052 321.816H308.875C308.071 321.816 307.416 321.187 307.416 320.414C307.416 319.641 308.071 319.013 308.875 319.013H375.052C375.857 319.013 376.512 319.641 376.512 320.414C376.512 321.187 375.857 321.816 375.052 321.816Z" fill="#F9A826"/>
<path d="M391.452 230.677C391.452 201.05 365.383 184.752 335.604 177.032C297.425 167.135 269.463 187.162 279.756 230.677C282.089 240.539 287.668 252.058 294.574 261.91H349.378C367.685 250.462 391.452 253.673 391.452 230.677Z" fill="#F9A826"/>
<path d="M334.784 286.684C337.902 280.975 341.854 276.857 346.209 273.722H294.878C308.09 291.849 325.61 303.483 334.784 286.684Z" fill="#F9A826"/>
<path d="M328.861 198.96C332.156 198.96 334.828 201.526 334.828 204.691V216.154H322.894V204.691C322.894 201.526 325.566 198.96 328.861 198.96ZM337.811 216.154V204.691C337.811 199.943 333.804 196.094 328.861 196.094C323.918 196.094 319.911 199.943 319.911 204.691V216.154C316.616 216.154 313.944 218.72 313.944 221.885V236.214C313.944 239.379 316.616 241.945 319.911 241.945H337.811C341.106 241.945 343.778 239.379 343.778 236.214V221.885C343.778 218.72 341.106 216.154 337.811 216.154ZM319.911 219.02H337.811C339.459 219.02 340.794 220.303 340.794 221.885V236.214C340.794 237.796 339.459 239.079 337.811 239.079H319.911C318.263 239.079 316.928 237.796 316.928 236.214V221.885C316.928 220.303 318.263 219.02 319.911 219.02Z" fill="white"/>
<path d="M243.593 265.693C242.874 271.463 245.389 276.497 249.212 276.937C253.035 277.376 256.717 273.055 257.436 267.285C257.751 264.759 257.446 262.375 256.683 260.455L259.412 235.968L247.422 234.983L246.004 259.226C244.791 260.919 243.908 263.167 243.593 265.693Z" fill="#FFB6B6"/>
<path d="M246.47 119.611C246.47 119.611 259.529 116.028 262.327 121.403C265.125 126.779 271.655 197.561 271.655 197.561L259.062 254.059L244.604 250.423L252.066 193.081L241.806 150.074L246.47 119.611Z" fill="#E6E6E6"/>
<path d="M54.567 291.493C84.7035 291.493 109.134 268.027 109.134 239.079C109.134 210.132 84.7035 186.665 54.567 186.665C24.4305 186.665 -1.52588e-05 210.132 -1.52588e-05 239.079C-1.52588e-05 268.027 24.4305 291.493 54.567 291.493Z" fill="#F9A826"/>
<path d="M54.567 215.615C58.4216 215.615 61.5465 218.616 61.5465 222.319V235.727H47.5875V222.319C47.5875 218.616 50.7123 215.615 54.567 215.615ZM65.0362 235.727V222.319C65.0362 216.765 60.349 212.263 54.567 212.263C48.785 212.263 44.0977 216.765 44.0977 222.319V235.727C40.243 235.727 37.1182 238.729 37.1182 242.431V259.192C37.1182 262.894 40.2431 265.896 44.0977 265.896H65.0362C68.8909 265.896 72.0157 262.894 72.0157 259.192V242.431C72.0157 238.729 68.8909 235.727 65.0362 235.727ZM44.0977 239.079H65.0362C66.9635 239.079 68.526 240.58 68.526 242.431V259.192C68.526 261.043 66.9636 262.544 65.0362 262.544H44.0977C42.1704 262.544 40.608 261.043 40.608 259.192V242.431C40.608 240.58 42.1704 239.079 44.0977 239.079Z" fill="white"/>
</g>
<defs>
<clipPath id="clip0_259_8015">
<rect width="527" height="459" fill="white"/>
</clipPath>
</defs>
</svg>
